# AST/ASF file generated using VICON BodyLanguage
# -----------------------------------------------
:version 1.10
:name VICON
:units
  mass 1.0
  length 0.45
  angle deg
:documentation
   .ast/.asf automatically generated from VICON data using
   VICON BodyBuilder and BodyLanguage model FoxedUp or BRILLIANT.MOD
:root
   order TX TY TZ RX RY RZ
   axis XYZ
   position 0 0 0  
   orientation 0 0 0 
:bonedata
  begin
     id 1 
     name lhipjoint
     direction 0.606768 -0.715223 0.346827 
     length 2.41543 
     axis 0 0 0  XYZ
  end
  begin
     id 2 
     name lfemur
     direction 0.34202 -0.939693 0  
     length 7.2778  
     axis 0 0 20  XYZ
    dof rx ry rz
    limits (-160.0 20.0)
           (-70.0 70.0)
           (-60.0 70.0)
  end
  begin
     id 3 
     name ltibia
     direction 0.34202 -0.939693 0   
     length 7.61811   
     axis 0 0 20   XYZ
    dof rx
    limits (-10.0 170.0)
  end
  begin
     id 4 
     name lfoot
     direction 0.0823924 -0.226371 0.97055   
     length 2.33618   
     axis -90 7.62852e-016 20   XYZ
    dof rx rz
    limits (-45.0 90.0)
           (-70.0 20.0)
  end
  begin
     id 5 
     name ltoes
     direction 1.53554e-011 -4.21934e-011 1   
     length 1.17015   
     axis -90 7.62852e-016 20   XYZ
    dof rx
    limits (-90.0 20.0)
  end
  begin
     id 6 
     name rhipjoint
     direction -0.6077 -0.714582 0.346516   
     length 2.4176  
     axis 0 0 0  XYZ 
  end
  begin
     id 7 
     name rfemur
     direction -0.34202 -0.939693 0   
     length 7.28127   
     axis 0 0 -20   XYZ
    dof rx ry rz
    limits (-160.0 20.0)
           (-70.0 70.0)
           (-70.0 60.0)
  end
  begin
     id 8 
     name rtibia
     direction -0.34202 -0.939693 0   
     length 7.77648   
     axis 0 0 -20   XYZ
    dof rx
    limits (-10.0 170.0)
 end
 begin
     id 9 
     name rfoot
     direction -0.0809463 -0.222398 0.97159   
     length 2.37533  
     axis -90 -7.62852e-016 -20   XYZ
    dof rx rz
    limits (-45.0 90.0)
           (-20.0 70.0)
  end
  begin
     id 10 
     name rtoes
     direction -1.53568e-011 -4.21714e-011 1   
     length 1.18972   
     axis -90 -7.62852e-016 -20   XYZ
    dof rx
    limits (-90.0 20.0)
  end
  begin
     id 11 
     name lowerback
     direction 0.010968 0.991932 -0.126297   
     length 2.21698   
     axis 0 0 0   XYZ
    dof rx ry rz
    limits (-20.0 45.0)
           (-30.0 30.0)
           (-30.0 30.0)
  end
  begin
     id 12 
     name upperback
     direction 0.0167007 0.997503 -0.0686276   
     length 2.22371   
     axis 0 0 0   XYZ
    dof rx ry rz
    limits (-20.0 45.0)
           (-30.0 30.0)
           (-30.0 30.0)
  end
  begin
     id 13 
     name thorax
     direction 0.0111721 0.999885 -0.0102878   
     length 2.25242   
     axis 0 0 0   XYZ
    dof rx ry rz
    limits (-20.0 45.0)
           (-30.0 30.0)
           (-30.0 30.0)
  end
  begin
     id 14 
     name lowerneck
     direction -0.0120265 0.990428 0.137508   
     length 1.57674   
     axis 0 0 0   XYZ
    dof rx ry rz
    limits (-20.0 45.0)
           (-30.0 30.0)
           (-30.0 30.0)
  end
  begin
     id 15 
     name upperneck
     direction 0.0175669 0.998907 0.0433089   
     length 1.5618   
     axis 0 0 0   XYZ
    dof rx ry rz
    limits (-20.0 45.0)
           (-30.0 30.0)
           (-30.0 30.0)
  end
  begin
     id 16
     name head
     direction 0.00754609 0.99997 0.00185367  
     length 1.60579  
     axis 0 0 0   XYZ
    dof rx ry rz
    limits (-20.0 45.0)
           (-30.0 30.0)
           (-30.0 30.0)
  end
  begin
     id 17 
     name lclavicle
     direction 0.885866 0.429166 -0.176231  
     length 3.44967  
     axis 0 0 0   XYZ
    dof ry rz
    limits (-20.0 10.0)
           (0.0 20.0)
  end
  begin
     id 18 
     name lhumerus
     direction 1 -4.48973e-011 -1.90255e-027   
     length 5.20607   
     axis 180 -30 -90   XYZ
    dof rx ry rz
    limits (-60.0 90.0)
           (-90.0 90.0)
           (-90.0 90.0)
  end
  begin
     id 19
     name lradius
     direction 1 -4.48956e-011 9.87925e-027   
     length 3.39961   
     axis 180 -30 -90   XYZ
    dof rx
    limits (-10.0 170.0)
  end
  begin
     id 20
     name lwrist
     direction 1 -4.48985e-011 1.73247e-026   
     length 1.6998   
     axis -9.60847e-015 90 90   XYZ
    dof ry
    limits (-180.0 0.0)
 end
  begin
     id 21 
     name lhand
     direction 1 -4.48798e-011 3.46119e-026   
     length 0.519693   
     axis -2.21073e-014 90 90   XYZ
    dof rx rz
    limits (-90.0 90.0)
           (-45.0 45.0)
  end
  begin
     id 22 
     name lfingers
     direction 1 -4.48938e-011 6.92797e-026   
     length 0.41899   
     axis -4.42155e-014 90 90   XYZ
    dof rx
    limits (0.0 90.0)
  end
  begin
     id 23
     name lthumb
     direction 0.707107 -6.34952e-011 0.707107   
     length 0.601588   
     axis -90 45 6.0103e-014   XYZ
    dof rx rz
    limits (-45.0 45.0)
           (-45.0 45.0)
  end
  begin
     id 24 
     name rclavicle
     direction -0.866736 0.456792 -0.200276   
     length 3.45032  
     axis 0 0 0   XYZ 
    dof ry rz
    limits (-10.0 20.0)
           (-20.0 0.0)
  end
  begin
     id 25 
     name rhumerus
     direction -1 -4.4897e-011 8.65094e-028  
     length 5.32214   
     axis 180 30 90   XYZ
    dof rx ry rz
    limits (-90.0 60.0)
           (-90.0 90.0)
           (-90.0 90.0)
  end
  begin
     id 26 
     name rradius
     direction -1 -4.48987e-011 1.08427e-026   
     length 3.51208   
     axis 180 30 90   XYZ
    dof rx
    limits (-10.0 170.0)
  end
  begin
     id 27 
     name rwrist
     direction -1 -4.48961e-011 1.73222e-026   
     length 1.75604   
     axis -9.60847e-015 -90 -90   XYZ
    dof ry
    limits (-180.0 0.0)
  end
  begin
     id 28
     name rhand
     direction -1 -4.48895e-011 3.46314e-026   
     length 0.586681   
     axis -2.21073e-014 -90 -90   XYZ
    dof rx rz
    limits (-90.0 90.0)
           (-45.0 45.0)
  end
  begin
     id 29
     name rfingers
     direction -1 -4.48968e-011 6.92916e-026   
     length 0.472997   
     axis -4.42155e-014 -90 -90   XYZ
    dof rx
    limits (0.0 90.0)
  end
  begin
     id 30
     name rthumb
     direction -0.707107 -6.34848e-011 0.707107   
     length 0.679133   
     axis -90 -45 -6.0103e-014   XYZ
    dof rx rz
    limits (-45.0 45.0)
           (-45.0 45.0)
  end
:hierarchy
  begin
    root lhipjoint rhipjoint lowerback
    lhipjoint lfemur
    lfemur ltibia
    ltibia lfoot
    lfoot ltoes
    rhipjoint rfemur
    rfemur rtibia
    rtibia rfoot
    rfoot rtoes
    lowerback upperback
    upperback thorax
    thorax lowerneck lclavicle rclavicle
    lowerneck upperneck
    upperneck head
    lclavicle lhumerus
    lhumerus lradius
    lradius lwrist
    lwrist lhand lthumb
    lhand lfingers
    rclavicle rhumerus
    rhumerus rradius
    rradius rwrist
    rwrist rhand rthumb
    rhand rfingers
  end

#!OML:ASF H:\Dans Jumps\Project 1\Capture day 1\Session 1\subject.ASF
:FULLY-SPECIFIED
:DEGREES
1
root 0.42537 17.6131 -13.8641 7.25791 -2.4823 -1.24043
lowerback 0.317685 -0.262252 -0.236663
upperback 5.44032 -0.410709 1.39308
thorax 5.45797 -0.253971 1.5577
lowerneck -11.4436 1.02133 -1.21726
upperneck 35.9968 2.12139 -0.870791
head 14.2229 0.620785 0.179516
rclavicle 6.11263e-015 1.33186e-014
rhumerus -26.5607 -12.7998 -80.9894
rradius 27.4337
rwrist 26.7464
rhand -18.48 -24.9981
rfingers 7.12502
rthumb 7.80707 -54.8339
lclavicle 6.11263e-015 1.33186e-014
lhumerus -23.9558 -6.33417 90.209
lradius 23.9444
lwrist 13.0091
lhand -26.7772 -3.71068
lfingers 7.12502
lthumb -0.204943 26.269
rfemur -15.0728 -1.74489 18.9468
rtibia 22.8471
rfoot -13.6521 -2.58226
rtoes 8.46846
lfemur -12.7272 7.16879 -19.4409
ltibia 19.1969
lfoot -11.4304 5.94278
ltoes 3.36597
2
root 0.424643 17.6129 -13.8645 7.24643 -2.48729 -1.22738
lowerback 0.311905 -0.247188 -0.238721
upperback 5.436 -0.389922 1.38077
thorax 5.45597 -0.243371 1.54698
lowerneck -11.422 1.01778 -1.18648
upperneck 36.0144 2.11327 -0.884941
head 14.2267 0.619647 0.166982
rclavicle -5.06901e-015 1.41137e-014
rhumerus -26.5869 -12.8284 -80.9832
rradius 27.4355
rwrist 26.7427
rhand -18.4524 -24.9787
rfingers 7.12502
rthumb 7.83375 -54.8136
lclavicle -5.06901e-015 1.41137e-014
lhumerus -23.966 -6.38475 90.229
lradius 23.9299
lwrist 13.0232
lhand -26.8166 -3.62807
lfingers 7.12502
lthumb -0.242937 26.3515
rfemur -15.0535 -1.74082 18.9338
rtibia 22.8348
rfoot -13.6476 -2.57877
rtoes 8.4843
lfemur -12.7154 7.16314 -19.4515
ltibia 19.1955
lfoot -11.4253 5.95394
ltoes 3.32232
3
root 0.423852 17.6129 -13.865 7.24144 -2.46726 -1.23561
lowerback 0.303203 -0.248793 -0.23609
upperback 5.4383 -0.392616 1.38995
thorax 5.46355 -0.24487 1.5549
lowerneck -11.4398 1.02125 -1.19994
upperneck 36.0274 2.11677 -0.86766
head 14.2363 0.621445 0.177111
rclavicle -8.00108e-015 1.68967e-014
rhumerus -26.5741 -12.8176 -80.9843
rradius 27.4281
rwrist 26.7551
rhand -18.4436 -25.0102
rfingers 7.12502
rthumb 7.84219 -54.8447
lclavicle -8.00108e-015 1.68967e-014
lhumerus -23.948 -6.33496 90.2409
lradius 23.9171
lwrist 12.9642
lhand -26.84 -3.79282
lfingers 7.12502
lthumb -0.26554 26.1868
rfemur -15.0446 -1.74227 18.9461
rtibia 22.8358
rfoot -13.659 -2.59076
rtoes 8.5389
lfemur -12.711 7.15783 -19.4391
ltibia 19.1928
lfoot -11.4408 5.94505
ltoes 3.32188
4
root 0.423191 17.6129 -13.8662 7.23286 -2.47485 -1.22808
lowerback 0.31496 -0.242663 -0.244379
upperback 5.43863 -0.383997 1.3869
thorax 5.45695 -0.240871 1.55679
lowerneck -11.4466 1.02062 -1.19849
upperneck 36.0273 2.11605 -0.868366
head 14.2378 0.62126 0.176526
rclavicle -1.03368e-014 -1.25234e-014
rhumerus -26.5619 -12.8346 -80.9865
rradius 27.417
rwrist 26.7774
rhand -18.4806 -24.956
rfingers 7.12502
rthumb 7.80647 -54.7918
lclavicle -1.03368e-014 -1.25234e-014
lhumerus -23.9429 -6.33624 90.2469
lradius 23.9248
lwrist 12.972
lhand -26.8119 -3.75875
lfingers 7.12502
lthumb -0.238427 26.2209
rfemur -15.0422 -1.73988 18.9393
rtibia 22.8365
rfoot -13.6581 -2.58681
rtoes 8.51588
lfemur -12.7044 7.15938 -19.4448
ltibia 19.1901
lfoot -11.4364 5.94578
ltoes 3.35198
5
root 0.422444 17.6129 -13.867 7.22589 -2.47194 -1.22731
lowerback 0.316941 -0.237883 -0.244324
upperback 5.43872 -0.377561 1.38619
thorax 5.45571 -0.237644 1.55631
lowerneck -11.451 1.02055 -1.19633
upperneck 36.0325 2.11488 -0.865747
head 14.2412 0.621389 0.177097
rclavicle 8.24956e-015 7.95139e-016
rhumerus -26.556 -12.843 -80.9901
rradius 27.4115
rwrist 26.788
rhand -18.4929 -24.944
rfingers 7.12502
rthumb 7.79463 -54.7803
lclavicle 8.24956e-015 7.95139e-016
lhumerus -23.9373 -6.33817 90.2575
lradius 23.9275
lwrist 12.9766
lhand -26.8173 -3.77287
lfingers 7.12502
lthumb -0.243662 26.2067
rfemur -15.0374 -1.73614 18.9408
rtibia 22.8393
rfoot -13.6608 -2.5916
rtoes 8.51499
lfemur -12.7003 7.15517 -19.4421
ltibia 19.1898
lfoot -11.4373 5.94591
ltoes 3.35685
6
root 0.421736 17.6128 -13.868 7.21916 -2.46781 -1.22773
lowerback 0.320381 -0.233777 -0.241899
upperback 5.43863 -0.372078 1.38539
thorax 5.45345 -0.234771 1.55437
lowerneck -11.4552 1.01999 -1.19465
upperneck 36.0361 2.1129 -0.862644
head 14.2438 0.621184 0.177823
rclavicle 2.98177e-015 1.19271e-015
rhumerus -26.5493 -12.8507 -80.996
rradius 27.406
rwrist 26.796
rhand -18.5076 -24.9322
rfingers 7.12502
rthumb 7.78044 -54.769
lclavicle 2.98177e-015 1.19271e-015
lhumerus -23.9326 -6.34193 90.267
lradius 23.9338
lwrist 12.9897
lhand -26.8255 -3.79336
lfingers 7.12502
lthumb -0.251581 26.1862
rfemur -15.0352 -1.73397 18.9436
rtibia 22.8469
rfoot -13.6659 -2.59634
rtoes 8.50805
lfemur -12.6952 7.15097 -19.4381
ltibia 19.1868
lfoot -11.436 5.94421
ltoes 3.36146
7
root 0.421016 17.6128 -13.8689 7.21145 -2.46159 -1.22932
lowerback 0.32602 -0.230488 -0.237011
upperback 5.43803 -0.367726 1.38443
thorax 5.4494 -0.232329 1.55084
lowerneck -11.4546 1.01943 -1.19272
upperneck 36.0369 2.11075 -0.859789
head 14.244 0.620971 0.178334
rclavicle -3.62782e-015 -1.2921e-014
rhumerus -26.544 -12.8585 -81.0028
rradius 27.4014
rwrist 26.8007
rhand -18.5217 -24.9266
rfingers 7.12502
rthumb 7.76686 -54.7639
lclavicle -3.62782e-015 -1.2921e-014
lhumerus -23.9299 -6.34793 90.2757
lradius 23.9429
lwrist 13.0093
lhand -26.8341 -3.80062
lfingers 7.12502
lthumb -0.259824 26.179
rfemur -15.0302 -1.73221 18.948
rtibia 22.8512
rfoot -13.669 -2.60331
rtoes 8.49726
lfemur -12.6914 7.14593 -19.4322
ltibia 19.187
lfoot -11.433 5.94123
ltoes 3.35793
8
root 0.420283 17.6126 -13.8699 7.2028 -2.45263 -1.2308
lowerback 0.332081 -0.228273 -0.232123
upperback 5.43678 -0.36482 1.38396
thorax 5.44449 -0.230612 1.54775
lowerneck -11.4513 1.01899 -1.19043
upperneck 36.0375 2.10892 -0.857803
head 14.2435 0.620846 0.178455
rclavicle -2.6339e-015 -2.22639e-014
rhumerus -26.5415 -12.8659 -81.0093
rradius 27.3965
rwrist 26.8046
rhand -18.533 -24.923
rfingers 7.12502
rthumb 7.75595 -54.7607
lclavicle -2.6339e-015 -2.22639e-014
lhumerus -23.9293 -6.35446 90.285
lradius 23.9534
lwrist 13.0333
lhand -26.8438 -3.80538
lfingers 7.12502
lthumb -0.269204 26.1742
rfemur -15.0233 -1.73172 18.9526
rtibia 22.8546
rfoot -13.6724 -2.61193
rtoes 8.48686
lfemur -12.6872 7.13959 -19.4259
ltibia 19.1889
lfoot -11.4311 5.93677
ltoes 3.35728
9
root 0.419638 17.6124 -13.8708 7.19292 -2.44374 -1.23014
lowerback 0.338835 -0.226443 -0.229405
upperback 5.43561 -0.362372 1.38365
thorax 5.4393 -0.229227 1.54602
lowerneck -11.4473 1.01865 -1.18726
upperneck 36.0376 2.10776 -0.858051
head 14.2426 0.620842 0.177603
rclavicle -9.54166e-015 7.95139e-016
rhumerus -26.5403 -12.869 -81.0153
rradius 27.3938
rwrist 26.8017
rhand -18.5406 -24.923
rfingers 7.12502
rthumb 7.74856 -54.761
lclavicle -9.54166e-015 7.95139e-016
lhumerus -23.9285 -6.35914 90.2945
lradius 23.9636
lwrist 13.0567
lhand -26.8521 -3.81937
lfingers 7.12502
lthumb -0.277228 26.1602
rfemur -15.015 -1.73469 18.9547
rtibia 22.8565
rfoot -13.6749 -2.61828
rtoes 8.47642
lfemur -12.6822 7.13385 -19.4223
ltibia 19.1926
lfoot -11.4304 5.9316
ltoes 3.36189
10
root 0.419005 17.6122 -13.8717 7.1823 -2.43393 -1.23101
lowerback 0.347007 -0.225784 -0.226591
upperback 5.43384 -0.36157 1.38535
thorax 5.43272 -0.228701 1.54625
lowerneck -11.4404 1.01904 -1.18475
upperneck 36.0369 2.10859 -0.86059
head 14.2409 0.621319 0.176212
rclavicle -2.78299e-015 1.37161e-014
rhumerus -26.5399 -12.8699 -81.0196
rradius 27.3905
rwrist 26.8002
rhand -18.5459 -24.9205
rfingers 7.12502
rthumb 7.74347 -54.7587
lclavicle -2.78299e-015 1.37161e-014
lhumerus -23.9301 -6.36331 90.3055
lradius 23.9753
lwrist 13.0804
lhand -26.8603 -3.83284
lfingers 7.12502
lthumb -0.285113 26.1467
rfemur -15.0054 -1.73923 18.9586
rtibia 22.8569
rfoot -13.677 -2.62395
rtoes 8.47057
lfemur -12.677 7.12683 -19.4168
ltibia 19.1982
lfoot -11.431 5.92721
ltoes 3.3709
11
root 0.41839 17.6119 -13.8727 7.17197 -2.42383 -1.23027
lowerback 0.353808 -0.225621 -0.226096
upperback 5.43244 -0.361399 1.3875
thorax 5.42737 -0.228617 1.54823
lowerneck -11.4341 1.02005 -1.18084
upperneck 36.037 2.11092 -0.865788
head 14.2396 0.622266 0.173723
rclavicle -5.71506e-015 -1.98785e-015
rhumerus -26.5397 -12.8664 -81.0238
rradius 27.3904
rwrist 26.7962
rhand -18.5451 -24.9254
rfingers 7.12502
rthumb 7.74425 -54.7636
lclavicle -5.71506e-015 -1.98785e-015
lhumerus -23.9315 -6.36929 90.3181
lradius 23.9864
lwrist 13.1044
lhand -26.869 -3.85837
lfingers 7.12502
lthumb -0.293538 26.1212
rfemur -14.9962 -1.74427 18.9608
rtibia 22.8565
rfoot -13.6777 -2.63036
rtoes 8.46278
lfemur -12.673 7.11831 -19.4132
ltibia 19.205
lfoot -11.4331 5.92386
ltoes 3.38682
12
root 0.41785 17.6116 -13.8737 7.16243 -2.41324 -1.2298
lowerback 0.360058 -0.225522 -0.224674
upperback 5.43089 -0.361343 1.38976
thorax 5.42217 -0.228549 1.54978
lowerneck -11.4284 1.02115 -1.17448
upperneck 36.0382 2.11364 -0.873424
head 14.2391 0.623369 0.169876
rclavicle 1.39149e-015 -1.17283e-014
rhumerus -26.5401 -12.8607 -81.0279
rradius 27.3926
rwrist 26.7879
rhand -18.5436 -24.9248
rfingers 7.12502
rthumb 7.74567 -54.763
lclavicle 1.39149e-015 -1.17283e-014
lhumerus -23.934 -6.37654 90.3311
lradius 23.9987
lwrist 13.1253
lhand -26.8784 -3.88372
lfingers 7.12502
lthumb -0.302678 26.0958
rfemur -14.9877 -1.75191 18.9628
rtibia 22.8558
rfoot -13.6782 -2.63327
rtoes 8.46306
lfemur -12.6705 7.10913 -19.4097
ltibia 19.2131
lfoot -11.436 5.92148
ltoes 3.40293
13
root 0.417253 17.6113 -13.8747 7.15518 -2.40152 -1.22813
lowerback 0.362892 -0.225474 -0.224386
upperback 5.42992 -0.361319 1.39134
thorax 5.41953 -0.228544 1.55126
lowerneck -11.4232 1.02125 -1.16825
upperneck 36.0386 2.11419 -0.879096
head 14.2382 0.623795 0.166523
rclavicle 9.93923e-016 9.14409e-015
rhumerus -26.539 -12.8574 -81.0322
rradius 27.3974
rwrist 26.783
rhand -18.5379 -24.9267
rfingers 7.12502
rthumb 7.75114 -54.7646
lclavicle 9.93923e-016 9.14409e-015
lhumerus -23.9351 -6.38727 90.3441
lradius 24.012
lwrist 13.1426
lhand -26.884 -3.89
lfingers 7.12502
lthumb -0.308016 26.0895
rfemur -14.982 -1.75887 18.9637
rtibia 22.8559
rfoot -13.6779 -2.63778
rtoes 8.46621
lfemur -12.6712 7.09809 -19.4076
ltibia 19.2212
lfoot -11.4379 5.9194
ltoes 3.41695
